<?xml version="1.0" encoding="utf-8"?>
<!-- Generator: Adobe Illustrator 27.0.0, SVG Export Plug-In . SVG Version: 6.00 Build 0)  -->
<svg version="1.1" id="Layer_1" xmlns="http://www.w3.org/2000/svg" xmlns:xlink="http://www.w3.org/1999/xlink" x="0px" y="0px"
	 viewBox="0 0 492.36 187.13" style="enable-background:new 0 0 492.36 187.13;" xml:space="preserve">
<style type="text/css">
	.st0{fill:#E51937;}
	.st1{fill:#525252;}
</style>
<g>
	<path class="st0" d="M370.59,164.51c-15.74,0-27.58-9-32.36-24.6l15.03-3c3.69,9.99,11.88,12.35,17.75,12.35
		c6.37,0,13.12-4.51,13.12-9.95c0-8.21-9.01-10.93-18.56-15.66c-11.16-5.53-23.82-10.58-23.82-26.87c0-7.6,2.44-13.58,7.25-17.79
		c5.01-4.38,12.32-7.67,21.73-7.67c15.05,0,25.83,9.32,30.63,20.9l-14.87,4.15c-3.73-6.74-9.82-9.79-16.17-9.79
		c-6.85,0-12.7,3.63-12.7,9.51c0,9.02,8.79,11.06,17.38,15.24c11.74,5.72,26.36,10.75,26.36,28.1
		C401.35,152.35,386.84,164.51,370.59,164.51L370.59,164.51z"/>
	<path class="st0" d="M440.97,164.51c-15.74,0-27.58-9-32.37-24.6l15.03-3c3.7,9.99,11.88,12.35,17.75,12.35
		c6.37,0,13.12-4.51,13.12-9.95c0-8.21-9.01-10.93-18.55-15.66c-11.17-5.53-23.82-10.58-23.82-26.87c0-7.6,2.44-13.58,7.25-17.79
		c5.01-4.38,12.32-7.67,21.73-7.67c15.05,0,25.82,9.32,30.63,20.9l-14.87,4.15c-3.73-6.74-9.82-9.79-16.17-9.79
		c-6.85,0-12.7,3.63-12.7,9.51c0,9.02,8.79,11.06,17.38,15.24c11.74,5.72,26.36,10.75,26.36,28.1
		C471.73,152.35,457.22,164.51,440.97,164.51L440.97,164.51z"/>
	<path d="M107.2,97.92V76.31h11.57c2.21,0,4.01,1.8,4.01,4.01v17.6h9.86c1.76,0,3.31,1.15,3.83,2.83l3.01,11.43h-16.7v35.25
		c0,3.52,1.76,4.52,5.65,4.52c2.39,0,4.9-0.75,7.16-1.26v12.82c-4.27,0.5-8.04,1-12.31,1c-11.56,0-16.08-5.78-16.08-15.08v-37.26
		h-9.05V97.92H107.2L107.2,97.92z"/>
	<path d="M143.16,173.81c2.39,0.5,4.27,0.5,6.53,0.5c5.4,0,8.42-1.51,10.3-5.15c1.51-3.14,2.51-5.03,2.51-7.66
		c0-2.39-1.26-5.15-2.01-7.79l-17.46-55.78h10.58c3.02,0,5.67,2.03,6.45,4.95l9.47,35.26h0.25l11.18-40.2h15.58l-20.61,65.46
		c-6.91,18.72-12.44,23.75-25.25,23.75c-3.77,0-5.65-0.25-7.54-0.5V173.81L143.16,173.81z"/>
	<path class="st0" d="M290.43,72.42h14.74c3.54,0,6.64,2.35,7.61,5.75l24.13,85.09h-16.77l-5.02-19.6h-28.65l-5.4,19.6H264.3
		L290.43,72.42L290.43,72.42z M311.12,128.4l-9.95-38.51h-0.25l-10.46,38.51H311.12L311.12,128.4z"/>
	<path class="st0" d="M80.11,87.48c-4.89,0-8.87-3.98-8.87-8.87c0-4.89,3.98-8.87,8.87-8.87c4.89,0,8.87,3.98,8.87,8.87
		C88.97,83.5,85,87.48,80.11,87.48L80.11,87.48z"/>
	<path class="st0" d="M244.38,72.45h-36.75v90.8h15.93v-36.69h15.83v-0.02h4.99c14.94,0,27.05-12.11,27.05-27.05
		C271.43,84.56,259.32,72.45,244.38,72.45L244.38,72.45z M243.38,111.4l-19.81,0V87.6h19.81c7.15,0,12.94,4.82,12.94,11.96
		C256.31,106.7,250.52,111.4,243.38,111.4L243.38,111.4z"/>
	<path d="M34.31,149.26c-8.77,0-16.29-6.51-17.74-14.54c-1.13-6.37-1-11.98-1-16.81c0-4.83-0.23-10.51,1-16.81
		c1.16-7.36,8.96-14.54,17.74-14.54c7.12,0,13.36,4.14,16.32,10.28l14.81-4.12c-4.8-12.52-16.92-21.42-31.13-21.42
		c-17.2,0-31.8,13.02-33.59,29.74c0,0-0.72,6.47-0.72,17.02c0,10.54,0.72,16.69,0.72,16.69c1.79,16.72,16.39,29.74,33.59,29.74
		c14.38,0,26.64-9.11,31.31-21.88l-14.86-3.92C47.9,144.94,41.61,149.26,34.31,149.26L34.31,149.26z"/>
	<path d="M72.31,163.26V97.93h11.59c2.22,0,4.01,1.8,4.01,4.01v61.32H72.31L72.31,163.26z"/>
	<path class="st0" d="M483.47,89.04c-4.97,0-8.84-3.99-8.84-8.84c0-4.85,3.92-8.89,8.89-8.89c4.97,0,8.84,3.99,8.84,8.84
		C492.36,85,488.44,89.04,483.47,89.04L483.47,89.04z M483.52,72.29c-4.48,0-7.86,3.55-7.86,7.91c0,4.36,3.36,7.86,7.82,7.86
		c4.48,0,7.86-3.55,7.86-7.91C491.33,75.79,487.98,72.29,483.52,72.29L483.52,72.29z M485.7,81.25l2.3,3.38h-2.43l-2.01-3.04h-1.64
		v3.04h-2.08V75.2h4.19c2.25,0,3.7,1.15,3.7,3.11C487.73,79.85,486.9,80.81,485.7,81.25L485.7,81.25z M483.96,77.04h-2.03v2.77h2.08
		c1.05,0,1.62-0.56,1.62-1.37C485.62,77.5,484.99,77.04,483.96,77.04L483.96,77.04z"/>
	<path class="st1" d="M143.08,45.49L124.46,0h-4.84L101,45.49h4.5L110,34.3h24.07l4.5,11.19H143.08L143.08,45.49z M132.78,30.76
		h-21.48L122,4.16L132.78,30.76L132.78,30.76z M159.24,45.49V3.55h14.87V0h-33.69v3.55h14.87v41.94H159.24L159.24,45.49z
		 M206.71,45.49v-3.55h-22.03V0h-3.89v45.49H206.71L206.71,45.49z M251.24,45.49L232.62,0h-4.84l-18.62,45.49h4.5l4.5-11.19h24.08
		l4.5,11.19H251.24L251.24,45.49z M240.94,30.76h-21.48l10.71-26.6L240.94,30.76L240.94,30.76z M292.91,45.49V0h-3.89v38.53
		L260.52,0h-3.96v45.49h3.89V6.41l28.64,39.08H292.91L292.91,45.49z M318.42,45.49V3.55h14.87V0h-33.69v3.55h14.87v41.94H318.42
		L318.42,45.49z M372.7,45.49L354.09,0h-4.84l-18.62,45.49h4.5l4.5-11.19h24.07l4.5,11.19H372.7L372.7,45.49z M362.41,30.76h-21.48
		l10.71-26.6L362.41,30.76L362.41,30.76z"/>
</g>
</svg>
