<?xml version="1.0" encoding="utf-8"?>
<!-- Generator: Adobe Illustrator 27.0.0, SVG Export Plug-In . SVG Version: 6.00 Build 0)  -->
<svg version="1.1" id="Layer_1" xmlns="http://www.w3.org/2000/svg" xmlns:xlink="http://www.w3.org/1999/xlink" x="0px" y="0px"
	 viewBox="0 0 492.36 187.97" style="enable-background:new 0 0 492.36 187.97;" xml:space="preserve">
<style type="text/css">
	.st0{fill:#E51937;}
	.st1{fill:#525252;}
</style>
<g>
	<path class="st0" d="M370.59,165.36c-15.74,0-27.58-9-32.36-24.6l15.03-3c3.69,9.99,11.88,12.35,17.75,12.35
		c6.37,0,13.12-4.51,13.12-9.95c0-8.21-9.01-10.93-18.56-15.66c-11.16-5.53-23.82-10.58-23.82-26.87c0-7.6,2.44-13.58,7.25-17.79
		c5.01-4.38,12.32-7.67,21.73-7.67c15.05,0,25.83,9.32,30.63,20.9l-14.87,4.15c-3.73-6.74-9.82-9.79-16.17-9.79
		c-6.85,0-12.7,3.63-12.7,9.51c0,9.02,8.79,11.06,17.38,15.24c11.74,5.72,26.36,10.75,26.36,28.1
		C401.35,153.19,386.84,165.36,370.59,165.36L370.59,165.36z"/>
	<path class="st0" d="M440.97,165.36c-15.74,0-27.58-9-32.37-24.6l15.03-3c3.7,9.99,11.88,12.35,17.75,12.35
		c6.37,0,13.12-4.51,13.12-9.95c0-8.21-9.01-10.93-18.55-15.66c-11.17-5.53-23.82-10.58-23.82-26.87c0-7.6,2.44-13.58,7.25-17.79
		c5.01-4.38,12.32-7.67,21.73-7.67c15.05,0,25.82,9.32,30.63,20.9l-14.87,4.15c-3.73-6.74-9.82-9.79-16.17-9.79
		c-6.85,0-12.7,3.63-12.7,9.51c0,9.02,8.79,11.06,17.38,15.24c11.74,5.72,26.36,10.75,26.36,28.1
		C471.73,153.19,457.22,165.36,440.97,165.36L440.97,165.36z"/>
	<path d="M107.2,98.77V77.16h11.57c2.21,0,4.01,1.8,4.01,4.01v17.6h9.86c1.76,0,3.31,1.15,3.83,2.83l3.01,11.43h-16.7v35.25
		c0,3.52,1.76,4.52,5.65,4.52c2.39,0,4.9-0.75,7.16-1.26v12.82c-4.27,0.5-8.04,1-12.31,1c-11.56,0-16.08-5.78-16.08-15.08v-37.26
		h-9.05V98.77H107.2L107.2,98.77z"/>
	<path d="M143.16,174.65c2.39,0.5,4.27,0.5,6.53,0.5c5.4,0,8.42-1.51,10.3-5.15c1.51-3.14,2.51-5.03,2.51-7.66
		c0-2.39-1.26-5.15-2.01-7.79l-17.46-55.78h10.58c3.02,0,5.67,2.03,6.45,4.95l9.47,35.26h0.25l11.18-40.2h15.58l-20.61,65.46
		c-6.91,18.72-12.44,23.75-25.25,23.75c-3.77,0-5.65-0.25-7.54-0.5V174.65L143.16,174.65z"/>
	<path class="st0" d="M290.43,73.26h14.74c3.54,0,6.64,2.35,7.61,5.75l24.13,85.09h-16.77l-5.02-19.6h-28.65l-5.4,19.6H264.3
		L290.43,73.26L290.43,73.26z M311.12,129.24l-9.95-38.51h-0.25l-10.46,38.51H311.12L311.12,129.24z"/>
	<path class="st0" d="M80.11,88.32c-4.89,0-8.87-3.98-8.87-8.87c0-4.89,3.98-8.87,8.87-8.87c4.89,0,8.87,3.98,8.87,8.87
		C88.97,84.35,85,88.32,80.11,88.32L80.11,88.32z"/>
	<path class="st0" d="M244.38,73.3h-36.75v90.8h15.93v-36.69h15.83v-0.02h4.99c14.94,0,27.05-12.11,27.05-27.05
		C271.43,85.41,259.32,73.3,244.38,73.3L244.38,73.3z M243.38,112.25l-19.81,0V88.44h19.81c7.15,0,12.94,4.82,12.94,11.96
		C256.31,107.55,250.52,112.25,243.38,112.25L243.38,112.25z"/>
	<path d="M34.31,150.11c-8.77,0-16.29-6.51-17.74-14.54c-1.13-6.37-1-11.98-1-16.81c0-4.83-0.23-10.51,1-16.81
		c1.16-7.36,8.96-14.54,17.74-14.54c7.12,0,13.36,4.14,16.32,10.28l14.81-4.12c-4.8-12.52-16.92-21.42-31.13-21.42
		c-17.2,0-31.8,13.02-33.59,29.74c0,0-0.72,6.47-0.72,17.02c0,10.54,0.72,16.69,0.72,16.69c1.79,16.72,16.39,29.74,33.59,29.74
		c14.38,0,26.64-9.11,31.31-21.88l-14.86-3.92C47.9,145.78,41.61,150.11,34.31,150.11L34.31,150.11z"/>
	<path d="M72.31,164.1V98.77h11.59c2.22,0,4.01,1.8,4.01,4.01v61.32H72.31L72.31,164.1z"/>
	<path class="st0" d="M483.47,89.89c-4.97,0-8.84-3.99-8.84-8.84c0-4.85,3.92-8.89,8.89-8.89c4.97,0,8.84,3.99,8.84,8.84
		C492.36,85.84,488.44,89.89,483.47,89.89L483.47,89.89z M483.52,73.13c-4.48,0-7.86,3.55-7.86,7.91c0,4.36,3.36,7.86,7.82,7.86
		c4.48,0,7.86-3.55,7.86-7.91C491.33,76.63,487.98,73.13,483.52,73.13L483.52,73.13z M485.7,82.1l2.3,3.38h-2.43l-2.01-3.04h-1.64
		v3.04h-2.08v-9.43h4.19c2.25,0,3.7,1.15,3.7,3.11C487.73,80.7,486.9,81.65,485.7,82.1L485.7,82.1z M483.96,77.88h-2.03v2.77h2.08
		c1.05,0,1.62-0.56,1.62-1.37C485.62,78.35,484.99,77.88,483.96,77.88L483.96,77.88z"/>
	<path class="st1" d="M130.02,46.24c8.12,0,13.03-4.71,13.03-12.28c0-5.39-4.02-10.43-8.87-11.19c4.09-0.82,7.98-4.71,7.98-10.43
		c0-7.16-4.91-11.59-12.55-11.59h-18.69v45.49H130.02L130.02,46.24z M129.14,21.14h-14.32V4.3h14.32c5.87,0,8.93,3.82,8.93,8.46
		C138.07,17.46,135,21.14,129.14,21.14L129.14,21.14z M129.41,42.69h-14.6v-18h14.6c6.34,0,9.55,4.36,9.55,9
		C138.96,39.21,135.41,42.69,129.41,42.69L129.41,42.69z M171.83,47.06c13.3,0,22.1-10.23,22.1-23.53c0-13.3-8.8-23.53-22.1-23.53
		c-13.37,0-22.1,10.23-22.1,23.53C149.73,36.83,158.46,47.06,171.83,47.06L171.83,47.06z M171.83,43.51c-11.05,0-18-8.52-18-19.98
		c0-11.59,6.96-19.98,18-19.98c10.91,0,18.01,8.39,18.01,19.98C189.83,34.99,182.74,43.51,171.83,43.51L171.83,43.51z M216.29,47.06
		c12.28,0,16.16-7.02,16.16-12.89c0-9.21-8.05-11.53-15.41-13.64c-6.21-1.64-11.87-3.21-11.87-8.59c0-4.91,4.57-8.39,10.64-8.39
		c5.12,0,9.75,1.77,13.03,5.73l2.59-2.86C227.89,2.39,222.84,0,216.02,0c-8.25,0-14.94,4.71-14.94,12.14
		c0,8.39,7.64,10.43,14.8,12.41c6.41,1.71,12.48,3.48,12.48,9.89c0,3.89-2.66,9.07-12,9.07c-6.48,0-11.25-3.21-14.18-6.62
		l-2.52,2.93C203.13,44.06,208.79,47.06,216.29,47.06L216.29,47.06z M255.99,46.24V4.3h14.87V0.75h-33.69V4.3h14.87v41.94H255.99
		L255.99,46.24z M295.95,47.06c13.3,0,22.1-10.23,22.1-23.53c0-13.3-8.8-23.53-22.1-23.53c-13.37,0-22.1,10.23-22.1,23.53
		C273.86,36.83,282.58,47.06,295.95,47.06L295.95,47.06z M295.95,43.51c-11.05,0-18-8.52-18-19.98c0-11.59,6.96-19.98,18-19.98
		c10.91,0,18.01,8.39,18.01,19.98C313.96,34.99,306.86,43.51,295.95,43.51L295.95,43.51z M362.65,46.24V0.75h-3.89v38.53
		L330.26,0.75h-3.96v45.49h3.89V7.16l28.64,39.08H362.65L362.65,46.24z"/>
</g>
</svg>
